<?xml version="1.0" encoding="utf-8"?>
<!-- Uploaded to: SVG Repo, www.svgrepo.com, Generator: SVG Repo Mixer Tools -->
<svg width="1000px" height="1000px" viewBox="0 0 1024 1024" class="icon"  version="1.1" xmlns="http://www.w3.org/2000/svg"><path d="M803.2 319.2v544.5c0 14.7-12 26.8-26.8 26.8H259.3c-14.7 0-26.8-12-26.8-26.8V319.2c0-14.8 12-26.9 26.8-26.9h127.4v11.6H259.3c-8.3 0-15.2 6.8-15.2 15.3v544.5c0 8.3 6.8 15.2 15.2 15.2h517.1c8.3 0 15.2-6.8 15.2-15.2V319.2c0-8.5-6.8-15.3-15.2-15.3H644.6v-11.6h131.8c14.7 0 26.8 12 26.8 26.9z" fill="#01A8C2" /><path d="M791.6 319.2v544.5c0 8.3-6.8 15.2-15.2 15.2H259.3c-8.3 0-15.2-6.8-15.2-15.2V319.2c0-8.5 6.8-15.3 15.2-15.3h127.4v71.5c-6.8 2.4-11.6 8.3-11.6 15.4 0 9.3 8.1 16.7 18.2 16.7 10 0 18.1-7.4 18.1-16.7h208.9c0 9.3 8.1 16.7 18.1 16.7 10.1 0 18.2-7.4 18.2-16.7 0-7.2-5-13.3-12-15.5v-71.4h131.8c8.4 0 15.2 6.8 15.2 15.3zM685.9 640.7V590c0-11-8.9-19.9-19.9-19.9h-55.7c7.6-4.1 13.4-9 16.9-15.2 10.7-18.9-3.1-39.4-4.1-40.7-9.6-11.7-20.9-16.9-33.3-15.5-31.5 3.6-60.7 50.9-70.3 68.1-9.6-17.3-38.8-64.5-70.3-68.1-12.4-1.4-23.5 3.8-33.5 15.9-0.7 0.9-14.5 21.4-3.8 40.3 3.5 6.1 9.3 11.1 17 15.2h-44.6c-11 0-19.9 8.9-19.9 19.9v50.6c0 11 8.9 19.9 19.9 19.9h4.4v130.9c0 9.4 7.6 17 17 17h241.4c9.4 0 17-7.6 17-17V660.6h1.7c11.2 0 20.1-8.9 20.1-19.9z" fill="#8CDDE4" /><path d="M498.1 649.8v-68.2c-1 0-2.1 0.1-3.1 0.1-7 0-13.4-0.3-19.6-0.8h-91.1c-5 0-9.2 4.2-9.2 9.2v50.6c0 5.1 4.2 9.2 9.2 9.2h113.8z m0 10.8H398v130.9c0 4.2 3.5 7.5 7.8 7.5h92.3V660.6zM685.9 590v50.6c0 11-8.9 19.9-19.9 19.9h-1.7v130.9c0 9.4-7.6 17-17 17H405.8c-9.4 0-17-7.6-17-17V660.6h-4.4c-11 0-19.9-8.9-19.9-19.9V590c0-11 8.9-19.9 19.9-19.9H429c-7.8-4.1-13.6-9-17-15.2-10.7-18.9 3.1-39.4 3.8-40.3 10-12 21.1-17.3 33.5-15.9 31.5 3.6 60.7 50.9 70.3 68.1 9.6-17.3 38.8-64.5 70.3-68.1 12.4-1.4 23.6 3.8 33.3 15.5 0.9 1.3 14.7 21.8 4.1 40.7-3.5 6.1-9.3 11.1-16.9 15.2H666c11 0 19.9 8.9 19.9 19.9z m-10.7 50.7V590c0-5-4.2-9.2-9.2-9.2H563.8c-2.1 0.2-4.1 0.3-6.3 0.5v68.5h-1.9v10.8h1.9V799h89.7c4.3 0 7.9-3.4 7.9-7.5V660.6h-97.6v-10.8H666c5 0 9.2-4 9.2-9.1z m-57.5-91c7.4-13.1-3-28.8-3.1-29-7.1-8.5-14.8-12.3-23.4-11.2-23.4 2.5-48.9 39.4-61.1 60.6h34.8c34.4-2.5 47.9-11.9 52.8-20.4zM546.8 799V581.6c-0.9 0-1.7 0.1-2.7 0.1-7.3 0-15.2-0.2-23.4-0.7l-0.1-0.1h-2l-0.2 0.1c-3.2 0.1-6.4 0.2-9.4 0.3V799h37.8zM474 570.1h35c-12-21.2-37.7-58-60.9-60.6-8.7-1-16.5 2.8-23.8 11.6 0 0-10.2 15.6-2.9 28.6 4.9 8.5 18.3 17.9 52.6 20.4z" fill="#EF4668" /><path d="M675.2 590v50.6c0 5.1-4.2 9.2-9.2 9.2H557.6v-68.5c2.2-0.1 4.2-0.2 6.3-0.5H666c5 0.1 9.2 4.2 9.2 9.2zM655.1 660.6v130.9c0 4.2-3.6 7.5-7.9 7.5h-89.7V660.6h97.6z" fill="#FFF8A6" /><path d="M644.6 375.2c7.1 2.2 12 8.3 12 15.5 0 9.3-8.1 16.7-18.2 16.7-10 0-18.1-7.4-18.1-16.7H644.6v-15.5z" fill="#01A8C2" /><path d="M644.6 375.2v15.5H633V375c1.7-0.6 3.6-0.8 5.4-0.8 2.2 0 4.3 0.3 6.2 1z" fill="#01A8C2" /><path d="M644.6 303.9v71.4c-1.9-0.7-3.9-1-6.1-1-1.9 0-3.7 0.2-5.4 0.8V304h11.5z" fill="#01A8C2" /><path d="M633 292.3h11.6v11.6H633zM644.6 245.2v47H633v-47c0-58.3-47.4-105.7-105.7-105.7h-23.2c-58.4 0-105.8 47.4-105.8 105.7v47h-11.6v-47c0-64.6 52.6-117.2 117.4-117.2h23.2c64.7 0 117.3 52.6 117.3 117.2zM633 375v15.8h-12.6c0-7.5 5.3-13.7 12.6-15.8z" fill="#01A8C2" /><path d="M633 303.9V375c-7.3 2.1-12.6 8.3-12.6 15.8H411.5c0-7.5-5.6-13.9-13.1-15.9v-71H633z" fill="#8CDDE4" /><path d="M398.4 292.3H633v11.6H398.4z" fill="#01A8C2" /><path d="M614.6 520.7c0.1 0.1 10.5 15.9 3.1 29-4.9 8.5-18.4 17.8-52.8 20.4h-34.8c12.2-21.2 37.7-58 61.1-60.6 8.5-1 16.3 2.8 23.4 11.2z" fill="#F59A9B" /><path d="M555.7 649.8h1.9v10.8h-1.9z" fill="#EF4668" /><path d="M546.8 581.6V799H509V581.3c3-0.1 6.1-0.2 9.4-0.3l0.2-0.1h2l0.1 0.1c8.2 0.5 16.1 0.7 23.4 0.7 0.9 0 1.8-0.1 2.7-0.1zM509 570.1h-35c-34.3-2.5-47.7-11.9-52.6-20.4-7.3-13 2.9-28.6 2.9-28.6 7.3-8.8 15.1-12.6 23.8-11.6 23.3 2.6 48.9 39.4 60.9 60.6z" fill="#F59A9B" /><path d="M498.1 660.6V799h-92.3c-4.3 0-7.8-3.4-7.8-7.5V660.6h100.1zM498.1 581.6v68.2H384.4c-5 0-9.2-4.1-9.2-9.2V590c0-5 4.2-9.2 9.2-9.2h91.1c6.1 0.5 12.6 0.8 19.6 0.8 0.9 0.1 2 0 3 0z" fill="#FFF8A6" /><path d="M398.4 390.8h13.1c0 9.3-8.1 16.7-18.1 16.7-10.1 0-18.2-7.4-18.2-16.7 0-7.1 4.8-13 11.6-15.4v15.4h11.6z" fill="#01A8C2" /><path d="M411.5 390.8h-13.1v-15.9c7.5 2 13.1 8.3 13.1 15.9zM398.4 374.9v15.9h-11.6v-15.4c2-0.8 4.3-1.2 6.6-1.2 1.7 0 3.5 0.2 5 0.7z" fill="#01A8C2" /><path d="M398.4 303.9v71c-1.5-0.5-3.2-0.7-5-0.7-2.3 0-4.6 0.3-6.6 1.2v-71.5h11.6z" fill="#01A8C2" /><path d="M386.8 292.3h11.6v11.6h-11.6z" fill="#01A8C2" /></svg>